<?xml version="1.0" standalone="no"?>
<!DOCTYPE svg PUBLIC "-//W3C//DTD SVG 20010904//EN"
 "http://www.w3.org/TR/2001/REC-SVG-20010904/DTD/svg10.dtd">
<svg version="1.0" xmlns="http://www.w3.org/2000/svg"
 width="1872.000000pt" height="1872.000000pt" viewBox="0 0 1872.000000 1872.000000"
 preserveAspectRatio="xMidYMid meet">

<g transform="translate(0.000000,1872.000000) scale(0.100000,-0.100000)"
fill="#000000" stroke="none">
<path d="M9015 17280 c-483 -20 -953 -81 -1399 -181 -1962 -443 -3709 -1634
-4822 -3289 -236 -351 -385 -607 -558 -961 -673 -1375 -933 -2954 -740 -4499
198 -1593 882 -3086 1965 -4295 1391 -1551 3334 -2485 5422 -2606 268 -15 975
-6 1207 15 1435 135 2754 630 3926 1472 927 666 1721 1563 2288 2586 899 1623
1194 3543 830 5400 -264 1349 -866 2574 -1793 3648 -152 176 -578 604 -756
760 -1194 1041 -2637 1691 -4195 1889 -462 59 -918 79 -1375 61z m950 -1064
c1341 -130 2546 -597 3538 -1370 130 -101 377 -314 377 -325 0 -4 -579 -585
-1287 -1292 l-1287 -1284 -7 50 c-4 28 -12 106 -18 175 -12 143 -47 292 -86
370 -37 72 -107 145 -172 176 -46 23 -74 28 -191 36 -195 12 -1966 13 -2207 1
-185 -10 -204 -12 -252 -36 -69 -36 -147 -117 -182 -191 -55 -115 -74 -229
-86 -522 l-7 -161 -97 -7 c-53 -3 -568 -6 -1146 -6 -1135 0 -1122 0 -1241 -54
-70 -32 -147 -105 -172 -164 -34 -78 -45 -237 -38 -512 3 -135 9 -269 12 -297
l7 -53 1448 0 c1564 0 1506 -2 1664 53 39 14 129 50 200 82 277 121 437 171
653 201 162 22 505 15 681 -15 113 -20 251 -50 260 -57 7 -6 -230 -293 -276
-334 -84 -75 -157 -117 -225 -129 -35 -6 -153 -23 -263 -37 -330 -42 -445 -72
-636 -170 -442 -226 -777 -656 -885 -1134 -25 -112 -46 -308 -37 -352 9 -47
-18 -167 -53 -238 -47 -94 -141 -191 -300 -312 -74 -55 -136 -99 -138 -97 -2
2 -13 42 -24 89 -105 429 -73 895 93 1346 52 141 182 401 263 525 l69 106
-396 6 c-218 4 -782 7 -1253 7 l-858 0 -2 -232 c-2 -128 -3 -980 -3 -1893 0
-913 -4 -1762 -9 -1887 l-9 -228 -130 -147 c-135 -153 -525 -546 -870 -877
l-197 -189 -43 48 c-913 1033 -1492 2370 -1632 3770 -56 559 -42 1203 36 1725
165 1095 621 2192 1278 3075 339 455 775 908 1216 1262 1086 872 2416 1403
3765 1503 80 5 165 12 190 14 113 10 815 -4 965 -18z m5032 -2933 c641 -871
1072 -1992 1197 -3113 67 -594 58 -1258 -25 -1820 -162 -1109 -611 -2185
-1292 -3097 -350 -468 -838 -969 -1276 -1311 -876 -683 -1933 -1160 -3003
-1356 -591 -109 -1310 -135 -1938 -70 -1166 120 -2257 521 -3160 1163 -88 62
-160 117 -160 122 0 14 1917 1940 1974 1983 28 21 76 51 106 65 l55 26 3090 5
3090 5 58 23 c76 31 168 116 204 190 l28 57 3 1845 c2 1015 0 1945 -3 2068
l-7 222 -1029 0 c-597 0 -1030 4 -1033 9 -8 12 177 243 245 307 30 28 80 68
112 89 55 37 61 38 175 46 64 4 435 8 823 8 l706 1 12 268 c13 270 8 402 -20
545 -24 118 -134 194 -386 264 -73 20 -133 41 -133 45 0 7 1498 1518 1506
1518 1 0 38 -48 81 -107z m-3317 -3405 c161 -342 240 -688 240 -1060 0 -260
-31 -459 -110 -698 -193 -590 -602 -1059 -1165 -1336 -583 -286 -1212 -308
-1801 -63 -92 38 -414 196 -414 202 0 4 300 282 361 335 l36 32 134 -46 c189
-64 418 -121 561 -140 239 -32 508 -2 748 81 470 164 871 578 1034 1066 61
182 78 282 83 494 4 161 2 208 -15 310 -23 135 -69 298 -137 489 l-46 130 93
94 c51 51 120 113 154 138 55 39 157 94 177 94 5 0 35 -55 67 -122z"/>
<path d="M6180 12463 c-51 -5 -189 -31 -233 -44 l-38 -10 3 -157 3 -157 100
-18 c199 -35 518 -33 778 4 l77 11 0 158 0 158 -73 16 c-172 39 -455 56 -617
39z"/>
</g>
</svg>
